<svg xmlns="http://www.w3.org/2000/svg" viewBox="0 0 1024 1024">
  <defs>
    <clipPath id="face-clip"><ellipse cx="130" cy="512" rx="70" ry="350"/></clipPath>
  </defs>
  <g id="background">
    <rect x="0" y="0" width="1024" height="1024" rx="180" ry="180" fill="#1F5F66"/>
  </g>
  <g id="arrow-body">
    <path d="M 130 162 L 894 162 A 70 350 0 0 1 894 862 L 130 862 Z" fill="#FFFFFF"/>
  </g>
  <g id="cylinder-face" clip-path="url(#face-clip)">
    <rect x="60" y="162" width="140" height="350" fill="#0F4046"/>
    <rect x="60" y="512" width="140" height="350" fill="#1F5F66"/>
  </g>
  <g id="mirrored-bars" fill="#0F4046">
    <rect x="275" y="442" width="44" height="140" rx="22" ry="22"/>
    <rect x="333" y="402" width="44" height="220" rx="22" ry="22"/>
    <rect x="391" y="352" width="44" height="320" rx="22" ry="22"/>
    <rect x="449" y="287" width="44" height="450" rx="22" ry="22"/>
    <rect x="507" y="352" width="44" height="320" rx="22" ry="22"/>
    <rect x="565" y="242" width="44" height="540" rx="22" ry="22"/>
    <rect x="623" y="212" width="44" height="600" rx="22" ry="22" fill="#FBB83D"/>
    <rect x="681" y="278" width="44" height="468" rx="22" ry="22"/>
    <rect x="739" y="346" width="44" height="332" rx="22" ry="22"/>
    <rect x="797" y="423" width="44" height="178" rx="22" ry="22"/>
    <rect x="855" y="466" width="44" height="92" rx="22" ry="22"/>
  </g>
</svg>
