<svg xmlns="http://www.w3.org/2000/svg" width="600" height="400" viewBox="0 0 600 400">
  <defs>
    <linearGradient id="paper" x1="0" y1="0" x2="0" y2="1">
      <stop offset="0" stop-color="#fbfbf8"/>
      <stop offset="1" stop-color="#f1f3ee"/>
    </linearGradient>
    <filter id="soft-shadow" x="-20%" y="-20%" width="140%" height="140%">
      <feDropShadow dx="0" dy="12" stdDeviation="16" flood-color="#0f2326" flood-opacity="0.16"/>
    </filter>
  </defs>

  <rect width="600" height="400" fill="url(#paper)"/>
  <path d="M0 326c76-18 132-18 207 0 60 15 115 14 185-4 69-17 137-14 208 11v67H0z" fill="#e5e9e1"/>

  <g transform="translate(250 34)" filter="url(#soft-shadow)">
    <rect width="100" height="100" rx="18" fill="#1f5f66"/>
    <path d="M16 18h68a7 34 0 0 1 0 64H16z" fill="#fff"/>
    <ellipse cx="16" cy="50" rx="7" ry="34" fill="#0f4046"/>
    <rect x="35" y="42" width="5" height="16" rx="2.5" fill="#0f4046"/>
    <rect x="45" y="34" width="5" height="32" rx="2.5" fill="#0f4046"/>
    <rect x="55" y="26" width="5" height="48" rx="2.5" fill="#0f4046"/>
    <rect x="65" y="20" width="5" height="60" rx="2.5" fill="#fbb83d"/>
    <rect x="75" y="37" width="5" height="26" rx="2.5" fill="#0f4046"/>
  </g>

  <text x="300" y="160" text-anchor="middle" font-family="-apple-system, BlinkMacSystemFont, 'Helvetica Neue', Arial, sans-serif" font-size="26" font-weight="700" fill="#14282b">Install Foil</text>
  <text x="300" y="188" text-anchor="middle" font-family="-apple-system, BlinkMacSystemFont, 'Helvetica Neue', Arial, sans-serif" font-size="14" fill="#53666a">Drag Foil into Applications</text>

  <path d="M246 247h108" fill="none" stroke="#1f5f66" stroke-width="3" stroke-linecap="round"/>
  <path d="M342 235l14 12-14 12" fill="none" stroke="#1f5f66" stroke-width="3" stroke-linecap="round" stroke-linejoin="round"/>
</svg>
